<?xml version="1.0" encoding="iso-8859-1"?>
<!-- Generator: Adobe Illustrator 19.1.0, SVG Export Plug-In . SVG Version: 6.00 Build 0)  -->
<svg version="1.1" id="Capa_1" xmlns="http://www.w3.org/2000/svg" xmlns:xlink="http://www.w3.org/1999/xlink" x="0px" y="0px"
	 viewBox="0 0 85.055 85.055" style="enable-background:new 0 0 85.055 85.055;" xml:space="preserve">
<g>
	<g>
		<path d="M22.71,42.532c0-6.264-5.095-11.359-11.356-11.359S0,36.269,0,42.532c0,6.259,5.094,11.352,11.354,11.352
			C17.615,53.882,22.71,48.79,22.71,42.532z M3.999,42.532c0-4.058,3.299-7.359,7.354-7.359c4.057,0,7.356,3.302,7.356,7.359
			c0,4.054-3.3,7.352-7.356,7.352C7.298,49.882,3.999,46.584,3.999,42.532z"/>
		<path d="M53.882,42.532c0-6.264-5.095-11.359-11.356-11.359s-11.354,5.096-11.354,11.359c0,6.259,5.094,11.352,11.354,11.352
			C48.788,53.882,53.882,48.79,53.882,42.532z M42.526,49.882c-4.056,0-7.354-3.298-7.354-7.352c0-4.058,3.299-7.359,7.354-7.359
			c4.057,0,7.356,3.302,7.356,7.359C49.882,46.584,46.583,49.882,42.526,49.882z"/>
		<path d="M73.699,31.171c-6.262,0-11.355,5.096-11.355,11.359c0,6.259,5.094,11.352,11.355,11.352s11.356-5.093,11.356-11.352
			C85.055,36.268,79.961,31.171,73.699,31.171z M73.699,49.882c-4.056,0-7.355-3.298-7.355-7.352c0-4.058,3.3-7.359,7.355-7.359
			c4.057,0,7.356,3.302,7.356,7.359C81.055,46.584,77.756,49.882,73.699,49.882z"/>
	</g>
</g>
<g>
</g>
<g>
</g>
<g>
</g>
<g>
</g>
<g>
</g>
<g>
</g>
<g>
</g>
<g>
</g>
<g>
</g>
<g>
</g>
<g>
</g>
<g>
</g>
<g>
</g>
<g>
</g>
<g>
</g>
</svg>
